# This file uses meters as units for non-parametric coordinates.

v -1320.286743 0.227150 1320.286743
v 1320.286743 0.227150 1320.286743
v -1320.286743 0.227150 -1320.286743
v 1320.286743 0.227150 -1320.286743
v -30.072803 0.227150 5.411455
v 30.072803 0.227150 5.411455
v 30.072803 0.227150 -38.002281
v -30.072803 0.227150 -38.002281
vt 0.625000 0.250000
vt 0.375000 0.250000
vt 0.375000 0.500000
vt 0.625000 0.500000
vt 0.625000 0.250000
vt 0.375000 0.250000
vt 0.625000 0.500000
vt 0.375000 0.500000
vn 0.000000 1.000000 0.000000
vn 0.000000 1.000000 0.000000
vn 0.000000 1.000000 0.000000
vn 0.000000 1.000000 0.000000
vn 0.000000 1.000000 0.000000
vn 0.000000 1.000000 0.000000
vn 0.000000 1.000000 0.000000
vn 0.000000 1.000000 0.000000
vn 0.000000 1.000000 0.000000
vn 0.000000 1.000000 0.000000
vn 0.000000 1.000000 0.000000
vn 0.000000 1.000000 0.000000
vn 0.000000 1.000000 0.000000
vn 0.000000 1.000000 0.000000
vn 0.000000 1.000000 0.000000
vn 0.000000 1.000000 0.000000
s off
f 1/2/1 2/1/2 6/5/3 5/6/4
f 2/1/5 4/4/6 7/7/7 6/5/8
f 4/4/9 3/3/10 8/8/11 7/7/12
f 3/3/13 1/2/14 5/6/15 8/8/16
